          <!-- <svg xmlns="http://www.w3.org/2000/svg" viewBox="0 0 44 44"><path fill="currentColor" d="M416 32H31.9C14.3 32 0 46.5 0 64.3v383.4C0 465.5 14.3 480 31.9 480H416c17.6 0 32-14.5 32-32.3V64.3c0-17.8-14.4-32.3-32-32.3zM135.4 416H69V202.2h66.5V416zm-33.2-243c-21.3 0-38.5-17.3-38.5-38.5S80.9 96 102.2 96c21.2 0 38.5 17.3 38.5 38.5 0 21.3-17.2 38.5-38.5 38.5zm282.1 243h-66.4V312c0-24.8-.5-56.7-34.5-56.7-34.6 0-39.9 27-39.9 54.9V416h-66.4V202.2h63.7v29.2h.9c8.9-16.8 30.6-34.5 62.9-34.5 67.2 0 79.7 44.3 79.7 101.9V416z" class=""></path></svg> -->

          <svg xmlns="http://www.w3.org/2000/svg" viewBox="0 0 44 44"><path d="M11.8 26l-2.2 2.3c-.5-2.9-.7-7.5 2.2-11.2V26zm-.4 4.1c2.7.5 7.2.7 10.6-2.3h-8.5l-2.1 2.3zm5.3-16.2c-.8.2-1.7.5-2.4.9v8.5l2.4-2.6v-6.8zm2.5-.3v4.6l4-4.2c-1.1-.3-2.5-.5-4-.4zM16 25.2h8.1c.4-.8.7-1.7.9-2.6h-6.6L16 25.2zm28-6.1V25c0 4.3-3.3 7.8-7.4 7.8h-1.8v2.9c0 4.6-3.6 8.3-7.9 8.3h-19C3.6 44 0 40.3 0 35.7V0h34.8v11.4h1.8c4.1 0 7.4 3.5 7.4 7.7zm-16.2.9c.1-2.6-.4-5-.8-6.4-.2-.9-.4-1.4-.4-1.4s-.5-.2-1.4-.4c-1.4-.4-3.6-.9-6.1-.8-.8 0-1.7.1-2.5.3-.8.2-1.6.4-2.4.7-.9.4-1.7.8-2.5 1.5-.6.5-1.1 1-1.6 1.6-4.5 5.4-3.4 12.5-2.6 15.5.2.9.4 1.4.4 1.4s.5.2 1.4.4c2.8.8 9.6 2 14.7-2.7.6-.5 1.1-1.1 1.5-1.7.6-.8 1-1.7 1.4-2.6.3-.8.5-1.7.7-2.6.1-1.1.2-1.9.2-2.8zm13.2-.9c0-2.6-2-4.6-4.4-4.6h-1.8v15.1h1.8c2.4 0 4.4-2.1 4.4-4.6v-5.9zM21 20h4.4c0-1.6-.1-3-.4-4.2L21 20z"/></svg>
         